<svg id="Capa_1" data-name="Capa 1" xmlns="http://www.w3.org/2000/svg" viewBox="0 0 17.58 19.99">
<path class="cls-1" d="M7.54,0a.24.24,0,0,1-.2,0V0Z" transform="translate(-1.21 0)"/>
<path class="cls-2" d="M12.66,0a.24.24,0,0,1-.2,0h.19A.08.08,0,0,1,12.66,0Z" transform="translate(-1.21 0)"/>
<path class="cls-3" d="M14.68,15.28a.59.59,0,0,0,0,1.17.57.57,0,0,0,.58-.57A.58.58,0,0,0,14.68,15.28Z" transform="translate(-1.21 0)"/>
<path class="cls-3" d="M11.17,16.45a.58.58,0,0,0-.58.59.56.56,0,0,0,.59.58.59.59,0,1,0,0-1.17Z" transform="translate(-1.21 0)"/>
<path class="cls-3" d="M7.66,11.8a.59.59,0,1,0,0,1.17.59.59,0,1,0,0-1.17Z" transform="translate(-1.21 0)"/>
<path class="cls-3" d="M18.22,14.81Q15.61,10.65,13,6.49a.53.53,0,0,1-.09-.3V3.57a.18.18,0,0,1,.13-.21A1.75,1.75,0,0,0,12.66,0c-.06,0-.14,0-.2,0H7.54c-.06.05-.14,0-.2,0a1.75,1.75,0,0,0-.4,3.32.19.19,0,0,1,.13.21v2.6a.59.59,0,0,1-.1.34l-5.19,8.3A3.34,3.34,0,0,0,3.72,19.9a.79.79,0,0,1,.34.1h11.8l.55-.13a3.36,3.36,0,0,0,2.38-3.13A3.46,3.46,0,0,0,18.22,14.81ZM6.42,9.62,8.08,7a1.06,1.06,0,0,0,.17-.57c0-1.12,0-2.24,0-3.36a.6.6,0,0,0-.61-.69.61.61,0,0,1-.56-.59.6.6,0,0,1,.64-.57c1.42,0,2.84,0,4.26,0,.11,0,.22,0,.33,0a.6.6,0,0,1,.63.56.62.62,0,0,1-.59.61.57.57,0,0,0-.58.63c0,1.13,0,2.26,0,3.38a1.12,1.12,0,0,0,.18.62c.43.67.84,1.34,1.26,2a1.42,1.42,0,0,1,.11.18A8,8,0,0,0,12.24,9a5.9,5.9,0,0,0-2.82.62,4.11,4.11,0,0,1-3.1.18A.38.38,0,0,1,6.42,9.62Zm10,9a2.34,2.34,0,0,1-1,.21H4.64a2.19,2.19,0,0,1-1.72-.74,2.09,2.09,0,0,1-.21-2.53C3.66,14,4.63,12.48,5.59,11c.06-.1.11-.09.2-.06a5.27,5.27,0,0,0,2.08.32A5.37,5.37,0,0,0,10,10.68a4.28,4.28,0,0,1,4.33.25.57.57,0,0,1,.13.14c.92,1.47,1.83,2.94,2.76,4.41A2.16,2.16,0,0,1,16.39,18.61Z" transform="translate(-1.21 0)"/>
<path class="cls-4" d="M12.33,11.8a1.76,1.76,0,0,0,0,3.51,1.76,1.76,0,1,0,0-3.51Zm0,2.34a.59.59,0,1,1,.59-.58A.62.62,0,0,1,12.34,14.14Z" transform="translate(-1.21 0)"/>
<path class="cls-4" d="M7.64,14.14a1.76,1.76,0,1,0,1.77,1.75A1.76,1.76,0,0,0,7.64,14.14Zm0,2.34a.6.6,0,0,1-.59-.58.61.61,0,0,1,.59-.59.6.6,0,0,1,.58.59A.59.59,0,0,1,7.66,16.48Z" transform="translate(-1.21 0)"/>
</svg>